<?xml version="1.0" encoding="utf-8"?>
<!-- Generator: Adobe Illustrator 26.3.1, SVG Export Plug-In . SVG Version: 6.00 Build 0)  -->
<svg version="1.1" id="Camada_1" xmlns="http://www.w3.org/2000/svg" xmlns:xlink="http://www.w3.org/1999/xlink" x="0px" y="0px"
	 viewBox="0 0 1800 444.7" style="enable-background:new 0 0 1800 444.7;" xml:space="preserve">
<style type="text/css">
	.st0{fill:#0050DC;}
</style>
<g>
	<path class="st0" d="M1161.4,223.3c0,23.2,0.1,46.3-0.1,69.5c0,3.5-0.2,7.2-1.3,10.5c-2.5,7.6-10.2,11.4-19.4,10
		c-8.3-1.2-13.5-7.4-14.1-16.6c-0.1-1,0-1.9,0-2.9c0-45.2,0-90.4,0-135.6c0-12.7-7.2-19.5-19.4-18.8c-8,0.5-13.7,5.2-15.1,13.9
		c-1.5,8.9-2.2,18-3.1,27c-3.2,30.3-5.7,60.6-9.8,90.8c-3.6,27-22.2,42.2-49.5,42.4c-6.1,0.1-12.4-0.2-18.4-1.3
		c-20.2-4-32.3-16.8-36.4-36.5c-2.6-12.6-3.6-25.6-5-38.5c-2.8-26.4-5.3-52.8-8-79.2c-1.3-12.9-7.5-18.8-18.6-18.5
		c-9.4,0.2-15.8,6.2-16.7,15.6c-0.2,2.3-0.1,4.5-0.1,6.8c0,43.1,0,86.2,0,129.3c0,1.9,0.1,3.9-0.1,5.8c-0.8,11.3-7.6,17.2-19,16.6
		c-10-0.5-15.7-7.5-15.7-18.4c0-46.5-0.7-93-0.1-139.5c0.4-29.6,18.4-47.6,46.7-49.5c6.5-0.4,13.3,0.1,19.8,1.3
		c20.8,4.1,34.3,19.4,37.4,43.1c2.8,21.2,4.7,42.5,6.9,63.7c1.7,16.6,3.3,33.2,5.1,49.8c1.2,10.4,8,15.9,19.1,15.9
		c11.1,0,18-5.6,19.1-16c3.1-29.1,5.8-58.3,8.9-87.5c1.2-11.4,2.2-23,4.9-34c5.6-23.2,22.6-36.2,46.6-36.4c7-0.1,14.3,0.5,21.1,2.3
		c19.6,5.1,33,21.3,33.6,41.6c0.7,24.4,0.2,48.9,0.2,73.4C1161.1,223.3,1161.3,223.3,1161.4,223.3z"/>
	<path class="st0" d="M1351.8,208.3c0,14.4,0.5,28.9-0.1,43.3c-1.5,35.2-27.3,60.8-62.5,63c-12.6,0.8-25,0.4-37-3.6
		c-26.5-8.8-40.4-28-44-55.1c-0.7-5-0.8-10-0.9-15c-0.1-25.4-0.1-50.9,0-76.3c0.1-13.6,9.6-20.7,22.8-17.5
		c7.6,1.8,11.8,7.7,11.8,16.8c0,25.4,0,50.9,0,76.3c0,3.6,0.2,7.1,0.6,10.7c1.9,18.7,12.7,29.4,31.4,30.9c4.3,0.4,8.8,0.4,13.1-0.2
		c19.4-2.4,29.9-14.2,30.1-34.7c0.3-27.1,0.1-54.1,0.2-81.2c0-2.6,0.2-5.2,0.9-7.7c2.2-8.4,9-12.3,19.4-11.4c8,0.7,13.9,5.9,14.1,14
		C1352.1,176.5,1351.8,192.4,1351.8,208.3C1351.8,208.3,1351.8,208.3,1351.8,208.3z"/>
	<path class="st0" d="M1533.4,147.9c2.6,0.2,4.6,0.4,6.7,0.4c15.2,0.1,30.5-0.1,45.7,0.1c10.3,0.2,16.1,6.3,15.8,16.2
		c-0.3,8.8-6.3,14.5-16,14.6c-15.4,0.2-30.8,0.2-46.2,0c-4.6-0.1-6.1,1.1-6.1,5.9c0.2,21.5,0,43.1,0.1,64.6
		c0,22.6,15.3,35.5,37.6,31.8c4-0.6,7.9-1.6,11.9-2.4c9-1.6,16,1.6,19.1,8.8c3.8,8.8,1,17.5-8.4,21.2c-7.8,3.1-16.5,4.9-24.9,5.6
		c-15,1.1-29.4-1.8-42.2-10.1c-16.2-10.6-24-26.3-26.4-45c-0.6-5-0.8-10-0.9-15c-0.1-19.6,0-39.2,0-58.8c0-6.5,0-6.5-6.8-6.5
		c-5.2,0-10.4,0.1-15.6-0.1c-9.9-0.3-15.8-6-15.9-15.2c-0.1-9.6,5.6-15.3,15.9-15.6c5.7-0.2,11.3-0.2,17,0c3.9,0.1,5.5-1.1,5.3-5.2
		c-0.3-6.8-0.3-13.6,0-20.4c0.5-13,11.9-20.4,23.9-15.7c7.8,3.1,10,9.7,10.2,17.2C1533.6,132,1533.4,139.8,1533.4,147.9z"/>
	<path class="st0" d="M1398,198.6c0-30.5,0-60.9,0-91.4c0-1.6,0-3.2,0-4.9c0.3-11.8,6.1-18,16.9-18.1c11.4-0.1,17.7,6,18.3,17.9
		c0.1,1.1,0,2.3,0,3.4c0,62.1,0,124.1,0,186.2c0,2.4-0.1,4.9-0.5,7.2c-1.9,10.3-7.9,14.9-18.5,14.5c-9.1-0.4-14.8-5.9-16-15.7
		c-0.2-1.9-0.2-3.9-0.2-5.8C1398,260.9,1398,229.7,1398,198.6z"/>
	<path class="st0" d="M83.7,323.9c1.6-0.2,2.4-0.3,3.1-0.3c8.7-0.4,8.7-0.3,11.6,7.8c4.7,13.4,14.7,21,28,24.6
		c16,4.2,32.1,4.3,48-0.4c18.3-5.5,30-17.9,32.3-36.9c1.9-15.3,1.3-31,1.8-46.5c-0.4-0.1-0.9-0.2-1.3-0.4c-0.6,0.8-1.3,1.5-1.7,2.3
		c-12.7,28.9-39.7,39.1-68.3,35.8c-31.9-3.7-53-25.7-58.1-59.4c-3.3-21.5-3.4-43.4,5.5-64.1c10.7-25.1,30.1-38.2,57.2-39.8
		c25.4-1.5,46.1,7,60.2,29.1c2.1,3.2,3.6,6.8,6.5,10.1c0.1-1.6,0.4-3.3,0.4-4.9c0.1-8.8,0.2-17.5,0-26.3c-0.1-4.4,2.5-4.4,5.6-4.4
		c3.3-0.1,5,0.6,5,4.5c-0.1,52.5,0.1,105-0.3,157.5c-0.2,25-14.9,44.7-38.7,52.1c-24.1,7.5-48.3,7.3-71.4-4.1
		C94.5,353,86.5,340.5,83.7,323.9z M148.4,156.8c-29.1,0-48.8,15.3-55.7,43.7c-4.3,17.6-4.3,35.4-0.6,53
		c5.7,27.5,21.4,42.6,48.1,46.1c28.8,3.8,55.8-9.4,65-41.8c4.1-14.2,4.1-28.8,3-43.4C205.4,179.3,182.2,156.8,148.4,156.8z"/>
	<path class="st0" d="M541.9,276.9c0,29.2,0,58.5,0,87.6c-11.5,1.9-11.6,1.8-11.6-8.7c0-66.3,0-132.5,0-198.8c0-6.4,3-8.6,9-6.4
		c1.1,0.4,1.9,2.7,2,4.2c0.3,9.1,0.3,18.1,0.5,27.2c0,1.2,0.2,2.4,0.4,4.7c1.1-1.6,1.7-2.2,2-2.9c12.8-27.5,35.1-38.8,64.5-37.1
		c27.9,1.6,47.8,15.6,57,41.8c11,31.1,11.1,62.8-3.8,93c-10.2,20.6-28.1,31-51,33.1c-22.7,2-42.5-3.7-57.4-21.8
		c-4-4.9-7-10.7-10.5-16.1C542.7,276.8,542.3,276.9,541.9,276.9z M661,230.7c-0.5-6.8-0.7-13.6-1.6-20.3
		c-1.9-14.1-6.4-27.2-16.7-37.5c-16.1-16.2-36-18.9-57.2-14c-21.7,5-34.3,20-40.2,40.7c-5.3,18.7-5.6,37.9-1.3,56.7
		c1.9,8.2,5,16.6,9.5,23.7c11.4,18.3,29.2,25,50.3,24.5c22.5-0.5,39.1-10.2,48.9-30.7C659.4,260.2,660.9,245.6,661,230.7z"/>
	<path class="st0" d="M1676.4,230.2c0,21.5,0.1,43.1,0,64.6c-0.1,12.9-7.5,19.7-20,18.6c-7.5-0.6-13.1-5.5-14.4-12.9
		c-0.5-3-0.8-6.1-0.8-9.2c0-40.8,0-81.7,0-122.5c0-2.1,0.1-4.2,0.4-6.3c1.5-11.3,7.4-16.4,18.6-16c9.9,0.4,15.8,6.6,16.2,17.5
		c0.2,7.1,0.1,14.3,0.1,21.4C1676.4,200.4,1676.4,215.3,1676.4,230.2z"/>
	<path class="st0" d="M699.7,230.9c0-16.1,2-31.7,9.1-46.4c11.4-23.4,30.5-35.4,56.1-37.7c11-1,22-0.3,32.7,3.2
		c19.7,6.4,33.8,19.3,41,38.6c10.2,27.2,10.5,55.1,0.7,82.3c-9.7,27-30.2,41.1-58.7,43.7c-14.3,1.3-28.2-0.3-41.2-6.6
		c-22.9-11.1-33.8-30.7-37.8-54.9C700.3,245.8,700.3,238.3,699.7,230.9z M711.2,229.1c1.4,11,1.7,20.8,4,30.1
		c7.1,29.8,27.1,45.1,57.7,45.2c29.8,0,50-15.2,57.3-44c4.9-19.4,4.6-39.2,0.2-58.7c-2.1-9.4-6.1-18.1-12.4-25.5
		c-14.6-17.1-33.9-21.3-55-18.7c-24.3,3-39.9,17.1-46.5,40.3C713.5,208.2,712.8,219.3,711.2,229.1z"/>
	<path class="st0" d="M472.3,279.8c-0.3,0.3-0.7,0.6-0.9,1c-12.7,25.5-31.1,35.9-59.7,33.8c-22.2-1.7-38.1-13.8-44.4-34.7
		c-1.9-6.1-3.2-12.7-3.3-19.1c-0.4-35.3-0.2-70.7-0.4-106c0-4.8,2.6-4.6,5.9-4.6c3.4-0.1,5.9,0.1,5.9,4.8
		c-0.2,32.7-0.1,65.5-0.1,98.2c0,10.7,1.6,21,6.7,30.5c8.5,15.7,27.6,23.6,47.9,20c25-4.4,41.6-23.2,42.7-51.1
		c1.2-30.7,0.7-61.6,0.9-92.3c0-2.1,0.1-4.2,0-6.3c-0.2-4.5,3.1-3.7,5.7-3.7c2.6,0,6-1,5.7,3.6c-0.1,1,0,1.9,0,2.9
		c0,49.4,0,98.9,0,148.3c0,5.6-4.9,8.6-9.8,5.9c-0.9-0.5-1.4-2.4-1.4-3.7c-0.2-7.1-0.2-14.3-0.2-21.4c0-2,0-4.1,0-6.1
		C473.1,279.9,472.7,279.8,472.3,279.8z"/>
	<path class="st0" d="M278.1,183.5c0.7-1.4,1.3-2.9,2-4.3c9.9-21.1,26.3-32.2,49.7-32.6c6.3-0.1,6.3,0,6.3,6.5c0,1.7,0,3.5,0,5.1
		c-7.1,0.7-13.6,0.8-19.8,2.2c-21.6,5-33,19.9-37.4,40.7c-1.4,6.4-1.9,13.2-2,19.8c-0.2,28.4-0.2,56.7,0,85.1c0,3.9-0.6,6-5.2,5.7
		c-4-0.2-6.6-0.2-6.5-5.5c0.2-50.1,0.2-100.1,0-150.2c0-4.8,2-5.5,6.1-5.6c4.2-0.1,5.7,1.2,5.6,5.5c-0.3,9.2-0.1,18.4-0.1,27.6
		C277.1,183.3,277.6,183.4,278.1,183.5z"/>
	<path class="st0" d="M1658.7,84.3c12.8,0,21.4,8.2,21.6,20.4c0.1,12.4-8.8,21.2-21.5,21.1c-12.4,0-21.5-8.9-21.4-20.9
		C1637.4,92.7,1646.1,84.3,1658.7,84.3z"/>
</g>
</svg>
