<svg width="40" height="40" viewBox="0 0 40 40" fill="none"
    xmlns="http://www.w3.org/2000/svg">
    <path d="M30.526 3.83413C26.0488 3.83413 23.6099 6.29152 23.0627 11.157L21.3709 26.1562C21.2221 27.6109 20.4261 28.3629 18.983 28.3629C17.5398 28.3629 16.7408 27.6109 16.5951 26.1562L14.9033 11.157C14.356 6.29152 11.9181 3.83413 7.43994 3.83413C2.96174 3.83413 0.175354 6.64288 0.175354 11.157V30.6672C0.175354 32.2216 1.12114 33.2253 2.66313 33.2253C4.20512 33.2253 5.1509 32.2216 5.1509 30.6672V11.157C5.1509 9.60161 6.04674 8.64927 7.5388 8.64927C8.98193 8.64927 9.72795 9.50196 9.92771 11.157L11.6195 26.1562C12.1668 30.8706 14.6546 33.2284 18.983 33.2284C23.3113 33.2284 25.7991 30.8706 26.3464 26.1562L28.0382 11.157C28.242 9.50196 28.984 8.64927 30.4271 8.64927C31.9192 8.64927 32.815 9.60161 32.815 11.157V30.6672C32.815 32.2216 33.7608 33.2253 35.3028 33.2253C36.8448 33.2253 37.7906 32.2216 37.7906 30.6672V11.157C37.7906 6.64288 35.0042 3.83413 30.526 3.83413Z" fill="#0050DC"></path>
</svg>