<svg width="110" height="34" viewBox="0 0 110 34" fill="none"
    xmlns="http://www.w3.org/2000/svg">
    <path d="M61.7724 9.50196C60.2304 9.50196 59.2847 10.4543 59.2847 12.0097V23.1943C59.2847 26.7048 57.5439 28.4605 54.1603 28.4605C50.7268 28.4605 48.986 26.7048 48.986 23.1943V12.0097C48.986 10.4543 48.0403 9.50196 46.4983 9.50196C44.9563 9.50196 44.0105 10.4543 44.0105 12.0097V23.1943C44.0105 29.3635 47.8915 33.2253 54.1104 33.2253C60.3803 33.2253 64.2602 29.3635 64.2602 23.1943V12.0097C64.2602 10.4543 63.3205 9.50196 61.7724 9.50196Z" fill="#0050DC"></path>
    <path d="M72.9679 0.774706C71.4259 0.774706 70.4802 1.77739 70.4802 3.33278V30.6672C70.4802 32.2216 71.4259 33.2253 72.9679 33.2253C74.5099 33.2253 75.4557 32.2216 75.4557 30.6672V3.33278C75.4557 1.77739 74.5099 0.774706 72.9679 0.774706Z" fill="#0050DC"></path>
    <path d="M30.526 3.83413C26.0488 3.83413 23.6099 6.29152 23.0627 11.157L21.3709 26.1562C21.2221 27.6109 20.4261 28.3629 18.983 28.3629C17.5398 28.3629 16.7408 27.6109 16.5951 26.1562L14.9033 11.157C14.356 6.29152 11.9181 3.83413 7.43994 3.83413C2.96174 3.83413 0.175354 6.64288 0.175354 11.157V30.6672C0.175354 32.2216 1.12114 33.2253 2.66313 33.2253C4.20512 33.2253 5.1509 32.2216 5.1509 30.6672V11.157C5.1509 9.60161 6.04674 8.64927 7.5388 8.64927C8.98193 8.64927 9.72795 9.50196 9.92771 11.157L11.6195 26.1562C12.1668 30.8706 14.6546 33.2284 18.983 33.2284C23.3113 33.2284 25.7991 30.8706 26.3464 26.1562L28.0382 11.157C28.242 9.50196 28.984 8.64927 30.4271 8.64927C31.9192 8.64927 32.815 9.60161 32.815 11.157V30.6672C32.815 32.2216 33.7608 33.2253 35.3028 33.2253C36.8448 33.2253 37.7906 32.2216 37.7906 30.6672V11.157C37.7906 6.64288 35.0042 3.83413 30.526 3.83413Z" fill="#0050DC"></path>
    <path d="M106.752 9.50196C105.21 9.50196 104.264 10.5046 104.264 12.06V30.6672C104.264 32.2216 105.21 33.2253 106.752 33.2253C108.294 33.2253 109.24 32.2216 109.24 30.6672V12.06C109.24 10.5046 108.294 9.50196 106.752 9.50196Z" fill="#0050DC"></path>
    <path d="M106.752 6.79286C108.428 6.79286 109.787 5.44565 109.787 3.78378C109.787 2.12192 108.428 0.774706 106.752 0.774706C105.076 0.774706 103.717 2.12192 103.717 3.78378C103.717 5.44565 105.076 6.79286 106.752 6.79286Z" fill="#0050DC"></path>
    <path d="M96.851 28.0085C95.9551 28.0085 95.0093 28.4605 93.7659 28.4605C90.8797 28.4605 89.3836 26.8558 89.3836 23.6957V14.2668H96.3984C97.9415 14.2668 98.8862 13.4141 98.8862 12.0066C98.8862 10.5992 97.9415 9.74647 96.3984 9.74647H89.3836V6.3922C89.3836 4.83681 88.4378 3.83413 86.9457 3.83413C85.4537 3.83413 84.5069 4.83681 84.5069 6.3922V9.75263H81.6756C80.1326 9.75263 79.1879 10.6053 79.1879 12.0128C79.1879 13.4202 80.1326 14.2729 81.6756 14.2729H84.5109V23.7019C84.5109 29.57 88.0444 33.2315 93.7659 33.2315C96.055 33.2315 99.139 32.5791 99.139 30.4227C99.139 29.1118 98.2941 28.0085 96.851 28.0085Z" fill="#0050DC"></path>
</svg>